<svg xmlns="http://www.w3.org/2000/svg" width="1200" height="630" viewBox="0 0 1200 630" role="img" aria-labelledby="title desc">
  <title id="title">OptiTech Academy ophthalmic technician foundations</title>
  <desc id="desc">Professional social preview card for OptiTech Academy online ophthalmic technician foundations training.</desc>
  <rect width="1200" height="630" fill="#f8fafc"/>
  <rect x="64" y="64" width="1072" height="502" rx="28" fill="#0f172a"/>
  <circle cx="980" cy="178" r="94" fill="#dbeafe"/>
  <circle cx="980" cy="178" r="68" fill="#2563eb"/>
  <circle cx="980" cy="178" r="36" fill="#0f172a"/>
  <circle cx="980" cy="178" r="12" fill="#f8fafc"/>
  <path d="M883 178c24-54 62-82 97-82 35 0 73 28 97 82-24 54-62 82-97 82-35 0-73-28-97-82Z" fill="none" stroke="#93c5fd" stroke-width="18" stroke-linecap="round"/>
  <text x="112" y="155" fill="#93c5fd" font-family="Arial, Helvetica, sans-serif" font-size="28" font-weight="700" letter-spacing="2">OPTITECH ACADEMY</text>
  <text x="112" y="250" fill="#ffffff" font-family="Arial, Helvetica, sans-serif" font-size="64" font-weight="800">Ophthalmic Technician</text>
  <text x="112" y="326" fill="#ffffff" font-family="Arial, Helvetica, sans-serif" font-size="64" font-weight="800">Foundations</text>
  <text x="112" y="405" fill="#cbd5e1" font-family="Arial, Helvetica, sans-serif" font-size="30">Self-paced training for individual learners, medical assistants,</text>
  <text x="112" y="448" fill="#cbd5e1" font-family="Arial, Helvetica, sans-serif" font-size="30">career changers, and practices onboarding new eye-care team members.</text>
  <rect x="112" y="492" width="318" height="54" rx="8" fill="#16a34a"/>
  <text x="136" y="528" fill="#ffffff" font-family="Arial, Helvetica, sans-serif" font-size="24" font-weight="700">Preview the course</text>
</svg>
